<?xml version="1.0" standalone="no"?>
<!DOCTYPE svg PUBLIC "-//W3C//DTD SVG 20010904//EN"
 "http://www.w3.org/TR/2001/REC-SVG-20010904/DTD/svg10.dtd">
<svg version="1.0" xmlns="http://www.w3.org/2000/svg"
 width="260.000000pt" height="260.000000pt" viewBox="0 0 260.000000 260.000000"
 preserveAspectRatio="xMidYMid meet">
<metadata>
Created by potrace 1.11, written by Peter Selinger 2001-2013
</metadata>
<g transform="translate(0.000000,260.000000) scale(0.100000,-0.100000)"
fill="#000000" stroke="none">
<path d="M1036 2459 c-33 -26 -34 -64 -3 -109 24 -36 73 -77 82 -68 3 3 -2 19
-12 36 -23 40 -12 49 35 31 29 -11 86 -13 279 -11 l243 4 10 -26 c12 -33 43
-34 111 -5 55 24 57 41 4 32 -28 -4 -35 -2 -35 10 0 9 5 19 10 22 6 3 10 13
10 22 0 11 -5 13 -17 8 -46 -19 -61 -17 -65 6 l-3 24 -235 0 c-216 1 -240 3
-297 23 -77 27 -84 27 -117 1z m134 -65 c0 -14 -12 -19 -23 -8 -9 9 4 35 14
28 5 -3 9 -12 9 -20z m30 -5 c0 -11 -4 -17 -10 -14 -5 3 -10 13 -10 21 0 8 5
14 10 14 6 0 10 -9 10 -21z m280 2 c0 -12 -10 -16 -35 -17 -34 0 -50 19 -22
29 28 10 57 4 57 -12z m86 -9 c-7 -11 -46 -4 -46 8 0 12 33 18 44 9 4 -4 5
-12 2 -17z m-316 2 c0 -9 -7 -14 -17 -12 -25 5 -28 28 -4 28 12 0 21 -6 21
-16z m67 1 c0 -8 -6 -15 -14 -15 -7 0 -13 5 -13 11 0 8 -5 8 -15 -1 -12 -10
-15 -10 -15 4 0 11 9 16 28 16 19 0 29 -5 29 -15z m43 0 c0 -8 -7 -15 -15 -15
-8 0 -15 7 -15 15 0 8 7 15 15 15 8 0 15 -7 15 -15z m40 6 c0 -6 -4 -13 -10
-16 -5 -3 -10 1 -10 9 0 9 5 16 10 16 6 0 10 -4 10 -9z m110 -1 c0 -5 -4 -10
-10 -10 -5 0 -10 5 -10 10 0 6 5 10 10 10 6 0 10 -4 10 -10z"/>
<path d="M1235 2255 c17 -14 18 -17 5 -25 -11 -7 -19 -4 -29 10 -20 29 -106
29 -121 -1 -13 -24 -15 -21 30 -44 59 -30 61 -33 45 -72 -8 -20 -15 -46 -15
-60 0 -21 3 -22 20 -13 15 8 30 8 54 -1 25 -9 41 -9 65 -1 21 7 40 8 56 2 31
-12 31 -9 4 91 -23 86 -47 116 -99 125 -34 5 -34 5 -15 -11z"/>
<path d="M1061 2154 c-29 -36 -27 -62 4 -70 33 -8 34 -7 41 49 6 39 4 47 -9
47 -9 0 -25 -12 -36 -26z"/>
<path d="M1561 2147 c-28 -10 -36 -20 -45 -52 -11 -38 -14 -41 -66 -53 -30 -7
-62 -16 -70 -19 -37 -16 -219 -17 -245 -1 -6 3 -36 11 -67 18 -59 12 -79 29
-71 60 7 27 -34 50 -88 50 -39 0 -76 -15 -210 -81 -90 -45 -210 -101 -266
-124 -55 -24 -117 -54 -138 -68 l-36 -25 36 -22 c72 -44 196 -62 277 -40 21 6
73 37 117 70 72 53 131 90 146 90 19 0 -5 -26 -70 -80 -85 -70 -94 -90 -37
-90 37 0 85 25 153 81 42 34 57 19 22 -21 -49 -57 -58 -79 -37 -95 19 -13 83
-25 138 -25 27 0 34 6 51 42 11 23 25 44 32 46 6 1 19 -20 28 -48 21 -63 14
-83 -54 -164 -65 -77 -78 -101 -61 -121 14 -17 53 -20 80 -5 11 6 33 31 50 56
41 59 67 53 47 -11 -7 -20 -3 -21 73 -20 l81 0 -6 38 c-9 51 14 50 49 -3 14
-22 37 -47 50 -55 29 -20 75 -16 89 6 10 16 9 18 -106 167 -24 31 -27 42 -22
77 7 42 29 85 44 85 5 0 17 -20 27 -45 16 -42 19 -45 55 -45 57 0 140 20 146
36 3 7 -14 37 -37 66 -41 52 -40 75 3 44 12 -9 44 -32 71 -51 37 -27 58 -35
92 -35 24 0 44 4 44 9 0 9 -26 33 -125 114 -16 14 -27 28 -23 32 8 9 66 -22
168 -89 l85 -56 98 0 c104 0 153 13 195 52 l22 22 -72 33 c-40 19 -176 83
-303 143 -126 59 -241 110 -255 113 -14 3 -40 0 -59 -6z"/>
<path d="M2240 1625 c-6 -8 -10 -21 -8 -29 3 -12 8 -12 37 2 19 10 36 23 39
30 5 17 -53 16 -68 -3z"/>
<path d="M2153 1604 c-7 -3 -13 -17 -13 -31 0 -19 3 -23 13 -16 6 6 25 13 40
17 16 4 27 12 24 19 -4 13 -44 19 -64 11z"/>
<path d="M2271 1575 c-23 -11 -31 -20 -27 -31 3 -9 6 -20 6 -25 0 -16 29 -10
50 11 19 19 28 60 13 60 -5 -1 -23 -7 -42 -15z"/>
<path d="M2350 1564 c0 -31 14 -59 50 -101 61 -69 63 -147 5 -203 -68 -66
-193 -45 -206 34 -3 20 -16 47 -27 59 -12 13 -22 34 -22 48 0 41 -26 114 -41
114 -13 0 -25 -30 -49 -122 -14 -56 -43 -73 -70 -41 -11 13 -29 47 -42 76 -14
33 -28 52 -39 52 -23 0 -129 -49 -129 -60 0 -19 43 -80 56 -80 7 0 28 -9 46
-20 18 -11 42 -20 52 -20 11 0 47 -15 80 -34 34 -18 75 -36 91 -40 17 -4 53
-23 82 -43 88 -61 191 -56 270 12 111 95 91 274 -41 363 -58 39 -66 40 -66 6z"/>
<path d="M1793 1561 c-18 -9 -32 -19 -32 -24 0 -4 -8 -21 -16 -37 -31 -61 8
-66 113 -15 66 32 72 36 62 55 -10 19 -12 19 -48 4 -20 -9 -46 -18 -57 -21
-20 -4 -20 -4 -1 11 11 9 23 16 28 16 4 0 8 4 8 9 0 17 -26 18 -57 2z"/>
<path d="M2173 1542 c-36 -17 -42 -42 -17 -63 14 -11 20 -9 45 19 16 18 26 38
23 47 -7 17 -9 17 -51 -3z"/>
<path d="M2313 1515 c-7 -8 -20 -18 -29 -23 -12 -7 -15 -17 -10 -36 9 -35 20
-33 52 10 23 30 25 37 13 49 -12 11 -16 11 -26 0z"/>
<path d="M2196 1466 c-21 -18 -26 -29 -21 -45 9 -29 19 -27 50 10 41 50 21 75
-29 35z"/>
<path d="M1105 1457 c-23 -8 -50 -19 -60 -26 -21 -13 11 -12 137 5 26 4 55 3
65 -1 16 -6 15 -8 -9 -21 -16 -8 -28 -19 -28 -23 0 -5 20 -21 45 -34 25 -14
45 -21 45 -16 0 5 7 9 16 9 11 0 14 6 9 20 -8 26 5 25 58 -1 38 -20 40 -23 23
-33 -45 -27 -67 -50 -96 -101 -29 -51 -30 -56 -16 -77 17 -24 21 -58 8 -58 -5
0 -19 14 -31 31 -22 29 -26 31 -69 25 -63 -8 -75 -21 -68 -70 9 -55 13 -58 52
-41 27 11 34 11 34 1 0 -17 43 -56 61 -56 8 0 25 8 38 17 61 42 190 0 314
-102 l67 -57 -42 -51 c-63 -75 -247 -271 -260 -276 -11 -4 -9 38 8 179 l6 55
-53 35 -54 35 3 68 2 67 -35 0 c-21 0 -38 6 -41 14 -6 17 -43 32 -99 41 -46 7
-85 30 -85 48 0 17 -42 57 -59 57 -10 0 -9 -7 4 -26 9 -14 15 -27 13 -30 -2
-2 -32 19 -66 46 -73 60 -96 111 -68 151 17 25 22 74 8 83 -5 3 -28 -15 -52
-39 -44 -45 -44 -45 -17 -45 15 0 27 -4 27 -9 0 -11 -25 -21 -50 -21 -20 0
-53 -40 -69 -84 l-10 -26 73 7 c97 8 114 -12 19 -23 -103 -10 -110 -15 -118
-74 -4 -28 -5 -53 -3 -55 2 -2 43 2 92 10 49 7 100 9 115 5 23 -6 20 -8 -24
-14 -27 -4 -79 -13 -115 -19 l-65 -12 -3 -45 c-4 -70 3 -75 92 -61 42 6 96 11
118 11 66 0 32 -18 -47 -25 -87 -9 -145 -23 -145 -36 0 -5 11 -32 25 -59 28
-55 30 -56 120 -39 50 9 134 5 124 -6 -2 -2 -42 -9 -89 -15 -120 -16 -121 -17
-60 -80 l51 -53 72 6 c72 6 117 -3 82 -17 -9 -3 -34 -6 -55 -6 -56 0 -56 -13
-2 -43 149 -81 423 -83 564 -4 43 23 41 37 -5 37 -35 0 -66 15 -55 26 4 3 37
2 73 -3 63 -9 67 -9 104 19 34 24 71 68 71 82 0 2 -13 7 -30 10 -16 3 -44 9
-61 12 -19 4 -27 10 -22 15 6 6 34 6 74 0 48 -8 67 -8 76 2 17 18 53 106 45
110 -4 3 -24 7 -44 11 -57 10 -47 28 11 20 45 -6 49 -5 54 17 4 13 7 41 7 61
l0 37 -75 12 c-101 16 -111 34 -14 24 41 -4 79 -8 84 -9 10 -1 10 17 -1 81 -5
35 -7 35 -178 64 -104 17 -60 27 56 12 56 -7 103 -12 104 -10 2 2 -7 26 -20
54 -24 51 -24 51 -93 66 -37 8 -90 18 -118 22 -38 5 -45 9 -32 16 11 7 37 6
74 0 31 -6 70 -11 85 -11 26 0 28 2 18 20 -19 36 -86 71 -179 93 -50 12 -91
25 -91 29 0 5 26 6 58 2 53 -5 56 -4 37 11 -11 8 -49 25 -85 36 -83 27 -294
36 -355 16z"/>
<path d="M2327 1442 c-10 -10 -17 -33 -17 -50 l0 -32 35 22 c36 24 44 45 23
66 -16 16 -22 15 -41 -6z"/>
<path d="M573 1415 c-77 -21 -152 -62 -200 -108 -24 -23 -43 -44 -43 -48 0
-15 72 -30 127 -28 l58 3 30 -59 c17 -33 37 -61 45 -63 11 -2 25 21 48 77 18
43 55 115 81 160 l49 81 -71 -1 c-40 0 -96 -7 -124 -14z m-43 -80 c-16 -19 -6
-43 22 -54 22 -9 22 -9 -6 -16 -24 -7 -33 -4 -48 15 -22 27 -22 34 -2 54 21
22 52 22 34 1z"/>
<path d="M2233 1405 c-22 -21 -32 -75 -14 -75 20 0 61 43 61 65 0 31 -20 36
-47 10z"/>
<path d="M2362 1367 c-12 -13 -22 -33 -22 -45 l0 -22 41 20 c28 15 39 26 35
36 -3 9 -6 20 -6 25 0 17 -26 9 -48 -14z"/>
<path d="M2267 1330 c-16 -13 -27 -31 -27 -45 0 -23 1 -23 28 -9 15 7 33 14
40 14 16 0 12 52 -4 57 -6 2 -23 -6 -37 -17z"/>
<path d="M1701 1314 c13 -14 25 -20 27 -14 7 20 -7 40 -29 40 l-22 0 24 -26z"/>
<path d="M1750 1325 c0 -3 7 -21 14 -40 21 -49 46 -46 46 5 0 38 -2 40 -30 40
-16 0 -30 -2 -30 -5z"/>
<path d="M1840 1286 c0 -32 27 -66 52 -66 13 0 -4 75 -20 88 -25 19 -32 14
-32 -22z"/>
<path d="M2382 1294 c-21 -15 -30 -44 -14 -44 5 0 16 8 24 18 36 42 31 55 -10
26z"/>
<path d="M1910 1266 c0 -27 22 -76 35 -76 14 0 30 64 20 80 -9 15 -55 12 -55
-4z"/>
<path d="M2285 1256 c-21 -16 -22 -16 43 -16 4 0 7 6 7 12 0 19 -28 21 -50 4z"/>
<path d="M1990 1205 c0 -25 2 -45 4 -45 2 0 11 -3 19 -6 20 -7 33 61 16 82
-23 28 -39 16 -39 -31z"/>
<path d="M1795 1187 c14 -24 25 -51 25 -60 0 -21 17 -21 64 -2 l36 15 41 -82
c23 -46 42 -95 43 -110 1 -16 5 -29 9 -29 19 -3 177 65 177 76 0 20 -24 35
-40 25 -8 -6 -21 -10 -29 -10 -11 0 -11 4 2 18 25 27 3 67 -43 81 -19 6 -84
35 -143 66 -60 30 -122 55 -138 55 l-30 0 26 -43z"/>
<path d="M2057 1183 c-5 -39 11 -63 40 -63 19 0 17 65 -3 84 -24 24 -31 20
-37 -21z"/>
<path d="M392 1147 c-77 -122 -150 -300 -159 -391 -7 -71 -8 -71 99 1 91 61
145 122 150 171 3 20 13 76 23 124 24 115 15 152 -37 156 -34 3 -37 0 -76 -61z"/>
<path d="M2135 1153 c3 -36 17 -53 48 -53 24 0 21 32 -5 57 -40 35 -45 35 -43
-4z"/>
<path d="M343 1170 c-28 -11 -29 -26 -5 -39 14 -7 21 -5 30 10 23 36 15 45
-25 29z"/>
<path d="M255 1126 c-18 -13 -17 -14 13 -30 60 -31 101 -8 50 28 -28 20 -39
20 -63 2z"/>
<path d="M2220 1125 c0 -20 18 -28 47 -20 30 7 27 12 -16 25 -24 7 -31 6 -31
-5z"/>
<path d="M536 1104 c-12 -31 -7 -64 9 -58 18 7 28 36 19 58 -8 20 -20 21 -28
0z"/>
<path d="M190 1075 c-12 -15 -11 -16 58 -40 15 -5 52 11 52 23 0 7 -70 32 -89
32 -5 0 -14 -7 -21 -15z"/>
<path d="M537 1025 c-37 -35 -36 -75 2 -55 9 5 24 11 34 14 13 4 17 14 15 33
-4 36 -18 38 -51 8z"/>
<path d="M151 1016 c-17 -20 -15 -23 29 -31 24 -4 41 -1 55 9 25 18 20 23 -31
31 -30 5 -43 3 -53 -9z"/>
<path d="M165 960 c-27 -3 -41 -11 -43 -22 -3 -14 4 -18 30 -18 39 0 79 24 63
37 -5 5 -28 6 -50 3z"/>
<path d="M523 945 c-13 -9 -23 -23 -23 -32 0 -12 7 -14 31 -9 17 3 38 6 46 6
9 0 13 8 11 23 -4 27 -35 33 -65 12z"/>
<path d="M2110 928 l-45 -22 33 -4 c32 -3 72 19 72 40 0 12 -10 10 -60 -14z"/>
<path d="M110 879 c-15 -28 -11 -30 41 -21 30 5 45 13 47 25 5 27 -74 24 -88
-4z"/>
<path d="M610 881 c-14 -27 -14 -28 20 -29 25 -1 30 3 30 24 0 30 -34 33 -50
5z"/>
<path d="M503 879 c-18 -5 -33 -14 -33 -19 0 -6 0 -13 0 -17 0 -3 17 -8 39
-10 32 -3 42 0 51 17 20 37 3 46 -57 29z"/>
<path d="M155 832 c-30 -3 -55 -25 -55 -48 0 -9 9 -9 40 0 70 21 81 56 15 48z"/>
<path d="M577 823 c-4 -3 -7 -15 -7 -26 0 -17 5 -19 36 -14 36 6 64 22 64 38
0 10 -83 12 -93 2z"/>
<path d="M441 811 c-40 -11 -34 -27 14 -38 40 -9 47 -8 55 8 6 10 10 22 10 28
0 12 -41 13 -79 2z"/>
<path d="M620 770 c-8 -5 -23 -11 -32 -14 -20 -6 -25 -51 -7 -62 12 -7 69 43
69 62 0 18 -12 23 -30 14z"/>
<path d="M670 748 c0 -20 4 -48 10 -62 9 -24 47 -53 57 -43 2 3 -12 36 -31 73
-35 69 -35 69 -36 32z"/>
<path d="M138 754 c-25 -13 -40 -55 -20 -54 22 2 77 38 80 53 4 21 -22 22 -60
1z"/>
<path d="M345 749 c-8 -12 -10 -11 38 -28 34 -11 41 -11 58 5 10 9 19 21 19
26 0 12 -108 10 -115 -3z"/>
<path d="M475 731 c-16 -10 -41 -30 -54 -45 -14 -14 -47 -37 -75 -50 -94 -44
-93 -42 -51 -121 20 -39 47 -80 58 -93 59 -63 306 -163 495 -198 74 -14 91
-21 88 -33 -21 -70 -21 -71 21 -71 99 0 222 53 293 125 42 43 43 44 19 49 -13
3 -55 12 -92 21 -37 8 -108 30 -157 49 l-90 33 0 -23 c0 -13 5 -34 11 -48 11
-22 19 -26 90 -32 44 -3 79 -10 79 -14 0 -14 -31 -20 -106 -20 -74 0 -75 0
-80 29 -5 24 -24 38 -123 94 -64 36 -138 85 -165 108 -40 35 -47 47 -43 69 3
15 -2 44 -13 68 -11 24 -24 61 -30 83 -12 45 -29 49 -75 20z"/>
<path d="M290 711 c-8 -6 -12 -12 -10 -14 25 -20 58 -37 72 -37 15 0 45 37 36
45 -10 9 -85 14 -98 6z"/>
<path d="M163 693 c-31 -15 -50 -50 -35 -65 14 -14 72 33 72 58 0 13 -1 24 -2
23 -2 0 -17 -7 -35 -16z"/>
<path d="M617 686 c-29 -23 -32 -33 -17 -56 7 -12 13 -11 34 10 25 23 34 54
18 63 -4 3 -19 -5 -35 -17z"/>
<path d="M230 666 c0 -8 8 -23 18 -35 16 -20 18 -21 40 -6 28 21 28 29 -3 43
-35 16 -55 15 -55 -2z"/>
<path d="M650 625 c-20 -22 -22 -28 -12 -51 16 -34 35 -26 46 19 13 51 -3 65
-34 32z"/>
<path d="M178 622 c-28 -17 -38 -55 -18 -67 15 -9 60 37 60 62 0 27 -5 27 -42
5z"/>
<path d="M701 563 c-8 -30 -8 -41 4 -52 12 -12 16 -9 31 22 14 30 15 39 4 52
-19 23 -28 18 -39 -22z"/>
<path d="M219 560 c-9 -10 -23 -20 -30 -22 -12 -4 -12 -9 0 -34 l13 -29 24 28
c36 42 30 96 -7 57z"/>
<path d="M756 528 c-9 -34 -7 -66 4 -73 16 -10 43 42 36 70 -8 31 -32 33 -40
3z"/>
<path d="M106 510 c-20 -18 -36 -36 -36 -41 0 -10 53 -12 87 -3 19 5 20 9 10
32 -18 44 -23 45 -61 12z"/>
<path d="M241 485 c-24 -35 -23 -65 2 -65 8 0 22 16 33 35 16 31 17 37 4 50
-13 13 -18 10 -39 -20z"/>
<path d="M802 465 c-25 -55 -7 -77 34 -42 23 20 25 26 15 45 -16 29 -35 28
-49 -3z"/>
<path d="M281 427 c-24 -26 -27 -47 -9 -65 17 -17 23 -15 36 13 26 56 9 89
-27 52z"/>
<path d="M846 408 c-15 -17 -16 -22 -5 -29 24 -15 49 -10 49 10 0 33 -24 43
-44 19z"/>
<path d="M340 378 c0 -6 -7 -19 -16 -29 -12 -14 -13 -22 -4 -38 17 -34 38 -25
45 19 4 21 4 44 0 50 -8 14 -25 13 -25 -2z"/>
<path d="M386 318 c-14 -53 -3 -88 29 -88 1 0 5 19 9 41 9 57 -24 98 -38 47z"/>
<path d="M443 253 c-10 -33 -10 -40 4 -50 29 -22 43 -15 43 21 0 73 -28 89
-47 29z"/>
<path d="M517 222 c-5 -40 11 -62 46 -62 14 0 17 5 13 20 -3 11 -9 29 -12 40
-3 11 -14 24 -24 30 -15 8 -18 5 -23 -28z"/>
<path d="M600 195 c0 -38 13 -49 49 -43 21 3 21 4 4 38 -10 19 -26 36 -35 38
-15 3 -18 -4 -18 -33z"/>
<path d="M667 218 c6 -7 13 -25 17 -40 5 -22 12 -28 35 -28 15 0 30 3 33 6 11
10 -26 63 -47 68 -35 10 -48 7 -38 -6z"/>
<path d="M760 204 c23 -30 31 -33 57 -21 25 11 31 27 9 27 -7 0 -29 3 -47 7
-32 6 -33 5 -19 -13z"/>
</g>
</svg>
